<svg width="89" height="90" viewBox="0 0 89 90" fill="none" xmlns="http://www.w3.org/2000/svg">
<path d="M44.5 81.6707C64.7861 81.6707 81.2313 65.2255 81.2313 44.9393C81.2313 24.6532 64.7861 8.20801 44.5 8.20801C24.2138 8.20801 7.76865 24.6532 7.76865 44.9393C7.76865 65.2255 24.2138 81.6707 44.5 81.6707Z" stroke="#E0E0E0" stroke-width="5.5097"/>
<path d="M51.8462 26.5738C51.8462 28.5222 51.0722 30.3907 49.6945 31.7684C48.3169 33.1461 46.4483 33.9201 44.5 33.9201C42.5516 33.9201 40.6831 33.1461 39.3054 31.7684C37.9277 30.3907 37.1537 28.5222 37.1537 26.5738C37.1537 24.6255 37.9277 22.7569 39.3054 21.3792C40.6831 20.0015 42.5516 19.2275 44.5 19.2275C46.4483 19.2275 48.3169 20.0015 49.6945 21.3792C51.0722 22.7569 51.8462 24.6255 51.8462 26.5738Z" stroke="#E0E0E0" stroke-width="5.5097"/>
<path d="M66.5388 37.5928C66.5388 37.5928 53.5469 43.1025 44.5 43.1025C35.453 43.1025 22.4612 37.5928 22.4612 37.5928M44.5 44.939V50.2724M44.5 50.2724C44.4989 52.3862 45.1059 54.4556 46.2484 56.2339L55.5194 70.651M44.5 50.2724C44.501 52.3862 43.894 54.4556 42.7515 56.2339L33.4806 70.651" stroke="#E0E0E0" stroke-width="5.5097" stroke-linecap="round"/>
</svg>
