<svg width="108" height="24" viewBox="0 0 108 24" fill="none" xmlns="http://www.w3.org/2000/svg">
<path d="M32.3558 10.6254C32.2118 9.58136 31.8578 8.78936 31.2938 8.24936C30.7298 7.69736 29.9978 7.42136 29.0978 7.42136C28.4618 7.42136 27.8918 7.56536 27.3878 7.85336C26.8958 8.12936 26.4758 8.51336 26.1278 9.00536C25.7918 9.48536 25.5338 10.0494 25.3538 10.6974C25.1738 11.3334 25.0838 12.0174 25.0838 12.7494C25.0838 13.8174 25.2518 14.7594 25.5878 15.5754C25.9358 16.3914 26.4158 17.0334 27.0278 17.5014C27.6518 17.9694 28.3778 18.2034 29.2058 18.2034C29.9738 18.2034 30.7298 18.0174 31.4738 17.6454C32.2298 17.2614 32.8538 16.7214 33.3458 16.0254L34.0838 16.6914C33.5198 17.4594 32.9198 18.0474 32.2838 18.4554C31.6478 18.8514 31.0238 19.1214 30.4118 19.2654C29.8118 19.4094 29.2658 19.4814 28.7738 19.4814C27.8498 19.4814 27.0098 19.3194 26.2538 18.9954C25.5098 18.6594 24.8618 18.2034 24.3098 17.6274C23.7698 17.0394 23.3498 16.3614 23.0498 15.5934C22.7618 14.8134 22.6178 13.9734 22.6178 13.0734C22.6178 12.2454 22.7438 11.4294 22.9958 10.6254C23.2598 9.82136 23.6498 9.09536 24.1658 8.44736C24.6938 7.79936 25.3538 7.28336 26.1458 6.89936C26.9378 6.50336 27.8558 6.30536 28.8998 6.30536C29.4278 6.30536 29.9798 6.38936 30.5558 6.55736C31.1318 6.71336 31.6718 6.94736 32.1758 7.25936L32.1038 6.43136H33.3458V10.6254H32.3558ZM40.3007 19.1934C40.2647 19.0134 40.2407 18.8634 40.2287 18.7434C40.2287 18.6114 40.2227 18.4614 40.2107 18.2934C39.8027 18.7014 39.3647 19.0014 38.8967 19.1934C38.4407 19.3854 37.9667 19.4814 37.4747 19.4814C36.6587 19.4814 36.0287 19.2594 35.5847 18.8154C35.1527 18.3714 34.9367 17.8254 34.9367 17.1774C34.9367 16.6014 35.0927 16.1154 35.4047 15.7194C35.7167 15.3114 36.1247 14.9814 36.6287 14.7294C37.1327 14.4654 37.6907 14.2674 38.3027 14.1354C38.9147 13.9914 39.5207 13.9134 40.1207 13.9014V12.9114C40.1207 12.5634 40.0787 12.2454 39.9947 11.9574C39.9227 11.6574 39.7847 11.4234 39.5807 11.2554C39.3767 11.0754 39.0767 10.9854 38.6807 10.9854C38.4167 10.9974 38.1467 11.0574 37.8707 11.1654C37.6067 11.2614 37.3967 11.4174 37.2407 11.6334C37.3367 11.7414 37.3967 11.8614 37.4207 11.9934C37.4447 12.1134 37.4567 12.2214 37.4567 12.3174C37.4567 12.5334 37.3727 12.7614 37.2047 13.0014C37.0367 13.2294 36.7667 13.3374 36.3947 13.3254C36.0707 13.3134 35.8187 13.1994 35.6387 12.9834C35.4707 12.7674 35.3867 12.5094 35.3867 12.2094C35.3867 11.7534 35.5487 11.3574 35.8727 11.0214C36.2087 10.6734 36.6587 10.4034 37.2227 10.2114C37.7867 10.0074 38.4167 9.90536 39.1127 9.90536C40.1447 9.90536 40.9367 10.1754 41.4887 10.7154C42.0407 11.2554 42.3107 12.1194 42.2987 13.3074C42.2987 13.7274 42.2987 14.1114 42.2987 14.4594C42.2987 14.7954 42.2927 15.1374 42.2807 15.4854C42.2807 15.8214 42.2807 16.1994 42.2807 16.6194C42.2807 16.7994 42.2747 17.0274 42.2627 17.3034C42.2507 17.5674 42.2327 17.8314 42.2087 18.0954C42.4247 18.0714 42.6407 18.0594 42.8567 18.0594C43.0847 18.0474 43.2707 18.0354 43.4147 18.0234V19.1934H40.3007ZM40.1027 14.9634C39.7427 14.9874 39.3887 15.0474 39.0407 15.1434C38.6927 15.2274 38.3807 15.3474 38.1047 15.5034C37.8287 15.6594 37.6067 15.8574 37.4387 16.0974C37.2827 16.3254 37.2107 16.5894 37.2227 16.8894C37.2347 17.2614 37.3547 17.5374 37.5827 17.7174C37.8107 17.8854 38.0747 17.9694 38.3747 17.9694C38.7227 17.9694 39.0347 17.8974 39.3107 17.7534C39.5987 17.6094 39.8627 17.4174 40.1027 17.1774C40.1027 17.0574 40.1027 16.9314 40.1027 16.7994C40.1027 16.6674 40.1027 16.5354 40.1027 16.4034C40.1027 16.2354 40.1027 16.0254 40.1027 15.7734C40.1027 15.5214 40.1027 15.2514 40.1027 14.9634ZM44.5214 19.1934V18.2394C44.8694 18.2394 45.1154 18.1674 45.2594 18.0234C45.4034 17.8674 45.4934 17.6514 45.5294 17.3754C45.5654 17.0994 45.5834 16.7874 45.5834 16.4394V13.0554C45.5834 12.8394 45.5894 12.6114 45.6014 12.3714C45.6134 12.1314 45.6314 11.8854 45.6554 11.6334C45.4514 11.6454 45.2294 11.6574 44.9894 11.6694C44.7494 11.6814 44.5514 11.6934 44.3954 11.7054V10.5354C44.9354 10.5354 45.3794 10.5114 45.7274 10.4634C46.0754 10.4034 46.3454 10.3314 46.5374 10.2474C46.7294 10.1634 46.8674 10.0854 46.9514 10.0134H47.7074C47.7314 10.1334 47.7434 10.2834 47.7434 10.4634C47.7554 10.6314 47.7674 10.7874 47.7794 10.9314C48.1754 10.6194 48.6074 10.3734 49.0754 10.1934C49.5434 10.0014 49.9994 9.90536 50.4434 9.90536C51.0074 9.90536 51.4754 10.0074 51.8474 10.2114C52.2314 10.4154 52.5314 10.7094 52.7474 11.0934C53.1674 10.7454 53.6414 10.4634 54.1694 10.2474C54.6974 10.0194 55.2074 9.90536 55.6994 9.90536C56.6954 9.90536 57.4394 10.1994 57.9314 10.7874C58.4354 11.3634 58.6814 12.3474 58.6694 13.7394V16.6194C58.6694 16.8114 58.6634 17.0454 58.6514 17.3214C58.6394 17.5854 58.6214 17.8434 58.5974 18.0954C58.7894 18.0714 58.9934 18.0594 59.2094 18.0594C59.4254 18.0474 59.6054 18.0414 59.7494 18.0414V19.1934H55.4834V18.2394C55.7954 18.2394 56.0174 18.1674 56.1494 18.0234C56.2814 17.8674 56.3594 17.6514 56.3834 17.3754C56.4194 17.0994 56.4374 16.7874 56.4374 16.4394V13.7574C56.4374 12.8934 56.2994 12.2754 56.0234 11.9034C55.7474 11.5314 55.3574 11.3454 54.8534 11.3454C54.5174 11.3334 54.1934 11.3994 53.8814 11.5434C53.5814 11.6754 53.3174 11.8374 53.0894 12.0294C53.1494 12.2574 53.1914 12.5034 53.2154 12.7674C53.2394 13.0314 53.2514 13.3134 53.2514 13.6134C53.2514 14.1174 53.2514 14.6214 53.2514 15.1254C53.2514 15.6174 53.2454 16.1154 53.2334 16.6194C53.2334 16.8114 53.2274 17.0454 53.2154 17.3214C53.2154 17.5854 53.1974 17.8434 53.1614 18.0954C53.3534 18.0714 53.5574 18.0594 53.7734 18.0594C53.9894 18.0474 54.1754 18.0414 54.3314 18.0414V19.1934H50.0114V18.2394C50.3354 18.2394 50.5634 18.1674 50.6954 18.0234C50.8394 17.8674 50.9294 17.6514 50.9654 17.3754C51.0014 17.0994 51.0194 16.7874 51.0194 16.4394V13.7214C51.0194 12.8574 50.8874 12.2454 50.6234 11.8854C50.3714 11.5134 49.9934 11.3214 49.4894 11.3094C49.1654 11.3094 48.8534 11.3814 48.5534 11.5254C48.2654 11.6694 48.0134 11.8434 47.7974 12.0474C47.7974 12.2034 47.7974 12.3594 47.7974 12.5154C47.7974 12.6594 47.7974 12.8094 47.7974 12.9654V16.6194C47.7974 16.8114 47.7914 17.0454 47.7794 17.3214C47.7794 17.5854 47.7614 17.8434 47.7254 18.0954C47.9174 18.0714 48.1094 18.0594 48.3014 18.0594C48.5054 18.0474 48.6794 18.0414 48.8234 18.0414V19.1934H44.5214ZM60.689 23.7834V22.8294C61.037 22.8294 61.283 22.7514 61.427 22.5954C61.583 22.4514 61.679 22.2414 61.715 21.9654C61.751 21.6894 61.769 21.3774 61.769 21.0294L61.787 13.0554C61.787 12.8394 61.787 12.6114 61.787 12.3714C61.799 12.1314 61.823 11.8854 61.859 11.6334C61.655 11.6454 61.427 11.6574 61.175 11.6694C60.935 11.6814 60.737 11.6934 60.581 11.7054V10.5354C61.133 10.5354 61.577 10.5114 61.913 10.4634C62.261 10.4034 62.525 10.3314 62.705 10.2474C62.897 10.1634 63.035 10.0854 63.119 10.0134H63.893C63.917 10.1334 63.935 10.2774 63.947 10.4454C63.959 10.6134 63.971 10.7694 63.983 10.9134C64.379 10.5654 64.799 10.3134 65.243 10.1574C65.687 9.98936 66.113 9.90536 66.521 9.90536C67.241 9.90536 67.883 10.0914 68.447 10.4634C69.011 10.8234 69.455 11.3454 69.779 12.0294C70.103 12.7014 70.265 13.4994 70.265 14.4234C70.265 15.4074 70.067 16.2834 69.671 17.0514C69.287 17.8074 68.759 18.4014 68.087 18.8334C67.415 19.2654 66.641 19.4814 65.765 19.4814C65.405 19.4814 65.081 19.4394 64.793 19.3554C64.505 19.2834 64.235 19.1874 63.983 19.0674V21.2094C63.983 21.4014 63.977 21.6294 63.965 21.8934C63.965 22.1694 63.947 22.4334 63.911 22.6854C64.103 22.6614 64.307 22.6434 64.523 22.6314C64.739 22.6314 64.919 22.6314 65.063 22.6314V23.7834H60.689ZM65.567 18.3474C66.119 18.3354 66.563 18.1674 66.899 17.8434C67.247 17.5074 67.499 17.0634 67.655 16.5114C67.811 15.9594 67.889 15.3594 67.889 14.7114C67.889 14.1234 67.811 13.5654 67.655 13.0374C67.511 12.5094 67.277 12.0834 66.953 11.7594C66.629 11.4354 66.197 11.2734 65.657 11.2734C65.321 11.2854 65.003 11.3694 64.703 11.5254C64.415 11.6814 64.175 11.8854 63.983 12.1374C63.983 12.4014 63.983 12.6714 63.983 12.9474C63.983 13.2234 63.983 13.5174 63.983 13.8294C63.983 14.1414 63.983 14.4954 63.983 14.8914C63.983 15.2754 63.983 15.7134 63.983 16.2054C63.983 16.6974 63.983 17.2614 63.983 17.8974C64.175 18.0294 64.409 18.1374 64.685 18.2214C64.961 18.3054 65.255 18.3474 65.567 18.3474ZM70.7131 19.1934V18.1674C71.0491 18.1674 71.3191 18.0714 71.5231 17.8794C71.7271 17.6874 71.8951 17.4354 72.0271 17.1234C72.1591 16.7994 72.2971 16.4394 72.4411 16.0434L76.0231 6.26936H76.9951L80.9011 16.2234C80.9731 16.4274 81.0691 16.7154 81.1891 17.0874C81.3091 17.4594 81.3751 17.7834 81.3871 18.0594C81.5911 18.0474 81.7891 18.0354 81.9811 18.0234C82.1731 18.0114 82.3411 18.0054 82.4851 18.0054V19.1934H77.8951V18.2034C78.2671 18.2034 78.5191 18.1254 78.6511 17.9694C78.7831 17.8134 78.8371 17.6094 78.8131 17.3574C78.8011 17.1054 78.7411 16.8474 78.6331 16.5834L78.1831 15.3594L74.0071 15.4314L73.6111 16.6374C73.5391 16.8414 73.4551 17.0754 73.3591 17.3394C73.2631 17.5914 73.1671 17.8194 73.0711 18.0234C73.2871 18.0114 73.5211 17.9994 73.7731 17.9874C74.0371 17.9754 74.2471 17.9694 74.4031 17.9694V19.1934H70.7131ZM74.4031 14.2794H77.7871L76.8151 11.6334C76.6711 11.2254 76.5331 10.8174 76.4011 10.4094C76.2811 9.98936 76.1791 9.60536 76.0951 9.25736H76.0591C75.9871 9.49736 75.8971 9.80936 75.7891 10.1934C75.6931 10.5774 75.5551 11.0154 75.3751 11.5074L74.4031 14.2794ZM83.5905 8.66336C83.5905 8.45936 83.5905 8.23736 83.5905 7.99736C83.6025 7.74536 83.6205 7.48736 83.6445 7.22336C83.4525 7.23536 83.2305 7.24736 82.9785 7.25936C82.7385 7.27136 82.5405 7.28336 82.3845 7.29536V6.12536C82.9365 6.12536 83.3865 6.10136 83.7345 6.05336C84.0825 5.99336 84.3525 5.92136 84.5445 5.83736C84.7485 5.75336 84.8925 5.67536 84.9765 5.60336H85.8045V10.9134C86.1885 10.5534 86.5965 10.2954 87.0285 10.1394C87.4605 9.98336 87.8925 9.90536 88.3245 9.90536C89.0685 9.90536 89.7225 10.0914 90.2865 10.4634C90.8625 10.8354 91.3125 11.3634 91.6365 12.0474C91.9605 12.7314 92.1225 13.5354 92.1225 14.4594C92.1225 15.4434 91.9305 16.3134 91.5465 17.0694C91.1625 17.8254 90.6345 18.4194 89.9625 18.8514C89.2905 19.2714 88.5165 19.4814 87.6405 19.4814C87.2925 19.4814 86.8665 19.4094 86.3625 19.2654C85.8705 19.1214 85.4205 18.8334 85.0125 18.4014L84.5085 19.1934H83.5905V8.66336ZM85.8045 16.4574C85.8045 16.9374 85.8825 17.3154 86.0385 17.5914C86.1945 17.8674 86.3925 18.0654 86.6325 18.1854C86.8845 18.2934 87.1365 18.3534 87.3885 18.3654C87.9405 18.3654 88.3845 18.2034 88.7205 17.8794C89.0685 17.5554 89.3205 17.1234 89.4765 16.5834C89.6445 16.0314 89.7285 15.4374 89.7285 14.8014C89.7285 14.1534 89.6505 13.5654 89.4945 13.0374C89.3385 12.4974 89.0985 12.0714 88.7745 11.7594C88.4505 11.4354 88.0245 11.2734 87.4965 11.2734C87.1725 11.2854 86.8605 11.3694 86.5605 11.5254C86.2605 11.6814 86.0085 11.8854 85.8045 12.1374V16.4574ZM93.2069 18.2394C93.5549 18.2394 93.8009 18.1674 93.9449 18.0234C94.1009 17.8674 94.1909 17.6514 94.2149 17.3754C94.2509 17.0994 94.2689 16.7874 94.2689 16.4394V8.66336C94.2689 8.45936 94.2749 8.23736 94.2869 7.99736C94.2989 7.74536 94.3169 7.48736 94.3409 7.22336C94.1369 7.23536 93.9149 7.24736 93.6749 7.25936C93.4349 7.27136 93.2309 7.28336 93.0629 7.29536V6.12536C93.6149 6.12536 94.0649 6.10136 94.4129 6.05336C94.7729 5.99336 95.0489 5.92136 95.2409 5.83736C95.4449 5.75336 95.5889 5.67536 95.6729 5.60336H96.4829L96.5009 16.6194C96.5009 16.8114 96.4949 17.0454 96.4829 17.3214C96.4709 17.5854 96.4469 17.8434 96.4109 18.0954C96.6149 18.0714 96.8249 18.0594 97.0409 18.0594C97.2569 18.0474 97.4369 18.0414 97.5809 18.0414V19.1934H93.2069V18.2394ZM103.14 19.4814C102.276 19.4814 101.508 19.2894 100.836 18.9054C100.164 18.5094 99.6418 17.9574 99.2698 17.2494C98.8978 16.5294 98.7118 15.6834 98.7118 14.7114C98.7118 13.8714 98.8978 13.0854 99.2698 12.3534C99.6418 11.6214 100.164 11.0334 100.836 10.5894C101.52 10.1334 102.312 9.90536 103.212 9.90536C103.716 9.90536 104.202 9.97736 104.67 10.1214C105.138 10.2654 105.558 10.5054 105.93 10.8414C106.302 11.1774 106.596 11.6214 106.812 12.1734C107.04 12.7254 107.148 13.3974 107.136 14.1894L101.088 14.2974C101.088 15.0414 101.172 15.7014 101.34 16.2774C101.52 16.8414 101.808 17.2914 102.204 17.6274C102.6 17.9514 103.122 18.1134 103.77 18.1134C104.058 18.1134 104.364 18.0654 104.688 17.9694C105.024 17.8614 105.354 17.7054 105.678 17.5014C106.002 17.2854 106.29 17.0214 106.542 16.7094L107.226 17.3394C106.83 17.9154 106.392 18.3594 105.912 18.6714C105.432 18.9834 104.952 19.1934 104.472 19.3014C103.992 19.4214 103.548 19.4814 103.14 19.4814ZM101.178 13.2174H104.922C104.91 12.7374 104.838 12.3354 104.706 12.0114C104.586 11.6754 104.406 11.4234 104.166 11.2554C103.926 11.0754 103.632 10.9854 103.284 10.9854C102.696 10.9854 102.222 11.1834 101.862 11.5794C101.514 11.9634 101.286 12.5094 101.178 13.2174Z" fill="white"/>
<path d="M12.5095 1.39648L1.7775 20.0416C1.55048 20.4361 1.83517 20.9284 2.29026 20.9284H18.1802C18.6464 20.9284 18.9294 20.4142 18.68 20.0203L6.88833 1.39648" stroke="white" stroke-width="2.1" stroke-linecap="round"/>
<path d="M6.99482 18.1648C6.99482 16.554 8.30061 15.2482 9.91138 15.2482C11.5221 15.2482 12.8279 16.554 12.8279 18.1648V20.9591H6.99482V18.1648Z" stroke="white" stroke-width="2.1"/>
</svg>
