<svg width="287" height="28" viewBox="0 0 287 28" fill="none" xmlns="http://www.w3.org/2000/svg">
<circle cx="3.74277" cy="3.75888" r="3.37998" fill="#F0EAE0"/>
<circle cx="27.9962" cy="3.75888" r="3.37998" fill="#F0EAE0"/>
<circle cx="52.2498" cy="3.75888" r="3.37998" fill="#F0EAE0"/>
<circle cx="100.757" cy="3.75888" r="3.37998" fill="#F0EAE0"/>
<circle cx="125.01" cy="3.75888" r="3.37998" fill="#F0EAE0"/>
<circle cx="149.264" cy="3.75888" r="3.37998" fill="#F0EAE0"/>
<circle cx="85.9654" cy="3.75888" r="3.37998" fill="#F0EAE0"/>
<circle cx="3.74277" cy="13.881" r="3.37998" fill="#F0EAE0"/>
<circle cx="27.9962" cy="13.881" r="3.37998" fill="#F0EAE0"/>
<circle cx="76.5033" cy="13.881" r="3.37998" fill="#F0EAE0"/>
<circle cx="100.757" cy="13.881" r="3.37998" fill="#F0EAE0"/>
<circle cx="125.01" cy="13.881" r="3.37998" fill="#F0EAE0"/>
<circle cx="27.9962" cy="24.003" r="3.37998" fill="#F0EAE0"/>
<circle cx="100.757" cy="24.003" r="3.37998" fill="#F0EAE0"/>
<circle cx="125.01" cy="24.003" r="3.37998" fill="#F0EAE0"/>
<circle cx="37.4586" cy="13.881" r="3.37998" fill="#F0EAE0"/>
<circle cx="158.726" cy="13.881" r="3.37998" fill="#F0EAE0"/>
<circle cx="3.74268" cy="3.75904" r="1.55884" fill="#F0EAE0"/>
<circle cx="27.9963" cy="3.75904" r="1.55884" fill="#F0EAE0"/>
<circle cx="52.2498" cy="3.75904" r="1.55884" fill="#F0EAE0"/>
<circle cx="76.5032" cy="3.75904" r="1.55884" fill="#F0EAE0" fill-opacity="0.2"/>
<circle cx="100.757" cy="3.75904" r="1.55884" fill="#F0EAE0"/>
<circle cx="125.01" cy="3.75904" r="1.55884" fill="#F0EAE0"/>
<circle cx="149.264" cy="3.75904" r="1.55884" fill="#F0EAE0"/>
<circle cx="13.2051" cy="3.75904" r="1.55884" fill="#F0EAE0" fill-opacity="0.2"/>
<circle cx="37.4585" cy="3.75904" r="1.55884" fill="#F0EAE0" fill-opacity="0.2"/>
<circle cx="61.7122" cy="3.75904" r="1.55884" fill="#F0EAE0" fill-opacity="0.2"/>
<circle cx="85.9656" cy="3.75904" r="1.55884" fill="#F0EAE0"/>
<circle cx="110.219" cy="3.75904" r="1.55884" fill="#F0EAE0" fill-opacity="0.2"/>
<circle cx="134.472" cy="3.75904" r="1.55884" fill="#F0EAE0" fill-opacity="0.2"/>
<circle cx="158.726" cy="3.75904" r="1.55884" fill="#F0EAE0" fill-opacity="0.2"/>
<circle cx="3.74268" cy="13.8811" r="1.55884" fill="#F0EAE0"/>
<circle cx="27.9963" cy="13.8811" r="1.55884" fill="#F0EAE0"/>
<circle cx="52.2498" cy="13.8811" r="1.55884" fill="#F0EAE0" fill-opacity="0.2"/>
<circle cx="76.5032" cy="13.8811" r="1.55884" fill="#F0EAE0"/>
<circle cx="100.757" cy="13.8811" r="1.55884" fill="#F0EAE0"/>
<circle cx="125.01" cy="13.8811" r="1.55884" fill="#F0EAE0"/>
<circle cx="149.264" cy="13.8811" r="1.55884" fill="#F0EAE0" fill-opacity="0.2"/>
<circle cx="3.74268" cy="24.0032" r="1.55884" fill="#F0EAE0" fill-opacity="0.2"/>
<circle cx="27.9963" cy="24.0032" r="1.55884" fill="#F0EAE0"/>
<circle cx="52.2498" cy="24.0032" r="1.55884" fill="#F0EAE0" fill-opacity="0.2"/>
<circle cx="76.5032" cy="24.0032" r="1.55884" fill="#F0EAE0" fill-opacity="0.2"/>
<circle cx="100.757" cy="24.0032" r="1.55884" fill="#F0EAE0"/>
<circle cx="125.01" cy="24.0032" r="1.55884" fill="#F0EAE0"/>
<circle cx="149.264" cy="24.0032" r="1.55884" fill="#F0EAE0" fill-opacity="0.2"/>
<circle cx="13.2051" cy="13.8811" r="1.55884" fill="#F0EAE0" fill-opacity="0.2"/>
<circle cx="37.4585" cy="13.8811" r="1.55884" fill="#F0EAE0"/>
<circle cx="61.7122" cy="13.8811" r="1.55884" fill="#F0EAE0" fill-opacity="0.2"/>
<circle cx="85.9656" cy="13.8811" r="1.55884" fill="#F0EAE0" fill-opacity="0.2"/>
<circle cx="110.219" cy="13.8811" r="1.55884" fill="#F0EAE0" fill-opacity="0.2"/>
<circle cx="134.472" cy="13.8811" r="1.55884" fill="#F0EAE0" fill-opacity="0.2"/>
<circle cx="158.726" cy="13.8811" r="1.55884" fill="#F0EAE0"/>
<circle cx="13.2051" cy="24.0032" r="1.55884" fill="#F0EAE0" fill-opacity="0.2"/>
<circle cx="37.4585" cy="24.0032" r="1.55884" fill="#F0EAE0" fill-opacity="0.2"/>
<circle cx="61.7122" cy="24.0032" r="1.55884" fill="#F0EAE0" fill-opacity="0.2"/>
<circle cx="85.9656" cy="24.0032" r="1.55884" fill="#F0EAE0" fill-opacity="0.2"/>
<circle cx="110.219" cy="24.0032" r="1.55884" fill="#F0EAE0" fill-opacity="0.2"/>
<circle cx="134.472" cy="24.0032" r="1.55884" fill="#F0EAE0" fill-opacity="0.2"/>
<circle cx="158.726" cy="24.0032" r="1.55884" fill="#F0EAE0" fill-opacity="0.2"/>
<circle cx="201.034" cy="3.75888" r="3.37998" fill="#F0EAE0"/>
<circle cx="225.288" cy="3.75888" r="3.37998" fill="#F0EAE0"/>
<circle cx="249.541" cy="3.75888" r="3.37998" fill="#F0EAE0"/>
<circle cx="273.795" cy="3.75888" r="3.37998" fill="#F0EAE0"/>
<circle cx="210.497" cy="3.75888" r="3.37998" fill="#F0EAE0"/>
<circle cx="259.004" cy="3.75888" r="3.37998" fill="#F0EAE0"/>
<circle cx="283.257" cy="3.75888" r="3.37998" fill="#F0EAE0"/>
<circle cx="273.795" cy="13.8819" r="3.37998" fill="#F0EAE0"/>
<circle cx="249.541" cy="24.003" r="3.37998" fill="#F0EAE0"/>
<circle cx="273.795" cy="24.003" r="3.37998" fill="#F0EAE0"/>
<circle cx="201.034" cy="3.76001" r="1.55884" fill="#F0EAE0"/>
<circle cx="225.288" cy="3.76001" r="1.55884" fill="#F0EAE0"/>
<circle cx="249.541" cy="3.76001" r="1.55884" fill="#F0EAE0"/>
<circle cx="273.795" cy="3.76001" r="1.55884" fill="#F0EAE0"/>
<circle cx="210.497" cy="3.76001" r="1.55884" fill="#F0EAE0"/>
<circle cx="234.75" cy="3.76001" r="1.55884" fill="#F0EAE0" fill-opacity="0.2"/>
<circle cx="259.003" cy="3.76001" r="1.55884" fill="#F0EAE0"/>
<circle cx="283.257" cy="3.76001" r="1.55884" fill="#F0EAE0"/>
<circle cx="201.034" cy="13.8811" r="1.55884" fill="#F0EAE0" fill-opacity="0.2"/>
<circle cx="225.288" cy="13.8811" r="1.55884" fill="#F0EAE0" fill-opacity="0.2"/>
<circle cx="249.541" cy="13.8811" r="1.55884" fill="#F0EAE0" fill-opacity="0.2"/>
<circle cx="273.795" cy="13.8811" r="1.55884" fill="#F0EAE0"/>
<circle cx="201.034" cy="24.0042" r="1.55884" fill="#F0EAE0" fill-opacity="0.2"/>
<circle cx="225.288" cy="24.0042" r="1.55884" fill="#F0EAE0" fill-opacity="0.2"/>
<circle cx="249.541" cy="24.0042" r="1.55884" fill="#F0EAE0"/>
<circle cx="273.795" cy="24.0042" r="1.55884" fill="#F0EAE0"/>
<circle cx="210.497" cy="13.8811" r="1.55884" fill="#F0EAE0" fill-opacity="0.2"/>
<circle cx="234.75" cy="13.8811" r="1.55884" fill="#F0EAE0" fill-opacity="0.2"/>
<circle cx="259.003" cy="13.8811" r="1.55884" fill="#F0EAE0" fill-opacity="0.2"/>
<circle cx="283.257" cy="13.8811" r="1.55884" fill="#F0EAE0" fill-opacity="0.2"/>
<circle cx="210.497" cy="24.0042" r="1.55884" fill="#F0EAE0" fill-opacity="0.2"/>
<circle cx="234.75" cy="24.0042" r="1.55884" fill="#F0EAE0" fill-opacity="0.2"/>
<circle cx="259.003" cy="24.0042" r="1.55884" fill="#F0EAE0" fill-opacity="0.2"/>
<circle cx="283.257" cy="24.0042" r="1.55884" fill="#F0EAE0" fill-opacity="0.2"/>
</svg>
